<svg width="43" height="40" viewBox="0 0 43 40" fill="none" xmlns="http://www.w3.org/2000/svg">
<path d="M37.6251 6.73437C33.7495 2.60937 28.1099 0 21.7996 0C10.0899 0 0.599609 8.95313 0.599609 20H5.89961C5.89961 11.7109 13.0132 5 21.7996 5C26.6441 5 30.9421 7.07031 33.8488 10.2969L28.8635 15H42.9996V1.66406L37.6251 6.73437ZM21.7996 35C16.9551 35 12.6571 32.9297 9.75039 29.7031L14.7357 25H0.599609V38.3359L5.97414 33.2656C9.84977 37.3906 15.4976 40 21.7996 40C33.5093 40 42.9996 31.0469 42.9996 20H37.6996C37.6996 28.2891 30.586 35 21.7996 35Z" fill="#F0D232"/>
</svg>
